<svg xmlns="http://www.w3.org/2000/svg" viewBox="0 0 1321.29 425.35"><defs><style>.cls-1{fill:none;stroke:#fff;stroke-miterlimit:10;stroke-width:4px;}</style></defs><title>Asset 1</title><g id="Layer_2" data-name="Layer 2"><g id="Layer_1-2" data-name="Layer 1"><path class="cls-1" d="M49.38,82v51l28.95,2.63v5.18H3.69v-5.18L24.33,133V17.53L2,15V9.81H132.6V41.16H124L119.88,20Q105.33,18.6,77.81,18.6H49.38V73.19h51.28l4-15.62h7.91V97.8h-7.91l-4-15.82Z"/><path class="cls-1" d="M209.42,114.6q0,16.8,20.77,16.79a142.51,142.51,0,0,0,30.12-3V55.81l-18.43-2.44V49h39.85v85l15.45,2.45v4.39H261.61l-1-7.42a136.16,136.16,0,0,1-21.29,6.59A93.42,93.42,0,0,1,219,142.72q-31.15,0-31.16-26.95v-60l-15.58-2.44V49h37.13Z"/><path class="cls-1" d="M376,133.93l20.9,2.45v4.39H333.63v-4.39l20.77-2.45V8.74L333.63,6.39V2H376Z"/><path class="cls-1" d="M476.41,133.93l20.9,2.45v4.39H434.09v-4.39l20.77-2.45V8.74L434.09,6.39V2h42.32Z"/><path class="cls-1" d="M640.31,105.52h8.44l4.55,17.67q4.8,4.59,16.55,8.11A80.61,80.61,0,0,0,693,134.81q18.18,0,28.37-7a22.13,22.13,0,0,0,10.19-19.29,17.17,17.17,0,0,0-4-11.62,32.33,32.33,0,0,0-10.39-7.76,78.88,78.88,0,0,0-14.6-5.37q-8.18-2.21-16.81-4.45t-16.82-5a63,63,0,0,1-14.6-6.93A34.69,34.69,0,0,1,644,57q-4-6.2-4-15.28,0-15.63,15.57-24.52t43.23-8.88a273.57,273.57,0,0,1,45.7,4.2V39.79h-8.44l-4.54-16q-13.25-7.23-32.72-7.23-17.4,0-27.19,5.32t-9.81,14.7a14.78,14.78,0,0,0,4,10.55,33.28,33.28,0,0,0,10.39,7.17,86.43,86.43,0,0,0,14.67,5.13q8.24,2.14,16.88,4.45T724.63,69a60.61,60.61,0,0,1,14.67,7.33,36.34,36.34,0,0,1,10.39,10.84q4,6.39,4,15.77,0,18.94-15.45,29.34t-44.53,10.4a217.6,217.6,0,0,1-28.17-1.85,168.65,168.65,0,0,1-25.19-5.08Z"/><path class="cls-1" d="M840.08,142.72q-12.47,0-18.63-5.56t-6.17-15.63V57.18h-16v-4.4L815.54,49l13.11-20.8h8.18V49h27.91v8.21H836.83v62.59q0,6.36,3.83,9.57t10.06,3.23A129.84,129.84,0,0,0,869,131v6.35q-4.54,2.34-13.11,3.86A91.52,91.52,0,0,1,840.08,142.72Z"/><path class="cls-1" d="M957.54,46.92q20,0,29.4,6.15t9.41,18.85v62l15.19,2.45v4.39H978.05l-2.47-9.18q-14.79,11.13-37.77,11.13-31.29,0-31.29-27.34,0-9.18,4.74-15.19T926.38,91q10.38-3.17,30.12-3.46l18.3-.39V72.8q0-9.47-4.61-14T956,54.34a60,60,0,0,0-23.76,4.59l-4.41,11.43h-7.27v-20A234,234,0,0,1,957.54,46.92ZM974.8,94l-17,.39q-17.4.5-23.56,5.08t-6.17,15.33q0,17.19,18.56,17.19a67.28,67.28,0,0,0,15.26-1.51,117.49,117.49,0,0,0,12.91-3.86Z"/><path class="cls-1" d="M1151.59,135.2q-6.36,3.53-17.53,5.52a129.52,129.52,0,0,1-22.84,2q-59.34,0-59.33-48.53,0-22.95,15.12-35.31t43.3-12.35a266.59,266.59,0,0,1,38.29,3V75.14h-7.14l-5.58-16.21q-10.77-4.59-25.83-4.59-34.8,0-34.79,39.85,0,20.7,10.58,29.54t32.78,8.84q18.95,0,33-3.23Z"/><path class="cls-1" d="M1231,96.53,1281,56l-12.72-2.63V49h43.1v4.4l-15.19,2.24-34.79,26.76,44.66,51.76,13.24,2.25v4.39h-50v-4.39l11.16-2.45L1247,94.38l-16,13.19v26.36l13,2.45v4.39h-50v-4.39l15.45-2.45V8.74l-18-2.35V2H1231Z"/><path class="cls-1" d="M83.58,249.81q48.17,0,71.4,16.17t23.24,48.58q0,32.81-22.4,49.71T88.9,381.16l-62-.39H4.52v-5.18L26.85,373V257.53L4.52,255v-5.18Zm67.5,64.55q0-27.44-19.66-41.6T75.27,258.6H51.9v113q15.59.78,37,.78,31.93,0,47.06-14.16T151.08,314.36Z"/><path class="cls-1" d="M249.2,334.58v1.76q0,13.47,4,20.94a25.86,25.86,0,0,0,12.2,11.38q8.25,3.91,21.62,3.91,7,0,16.61-.88t15.84-2v5.47a75,75,0,0,1-16.94,5.28,106.77,106.77,0,0,1-21.87,2.24q-28.44,0-41.61-11.52t-13.18-37q0-24,13.37-35.84t38.17-11.82q46.86,0,46.86,40v8Zm28.17-40.24q-13.5,0-20.71,8.21t-7.2,24.22h52.19q0-17.49-6-25T277.37,294.34Z"/><path class="cls-1" d="M432.35,382.72h-9.61L372.5,295.81,360,293.37V289H416.9v4.4L397.56,296l35.57,63.38,34-63.57-19.35-2.44V289H493v4.4l-11.68,2.05Z"/><path class="cls-1" d="M553.31,334.58v1.76q0,13.47,4,20.94a25.86,25.86,0,0,0,12.2,11.38q8.25,3.91,21.62,3.91,7,0,16.62-.88t15.83-2v5.47a75,75,0,0,1-16.94,5.28,106.77,106.77,0,0,1-21.87,2.24q-28.44,0-41.61-11.52t-13.18-37q0-24,13.38-35.84t38.16-11.82q46.86,0,46.87,40v8Zm28.17-40.24q-13.5,0-20.7,8.21t-7.21,24.22h52.19q0-17.49-6-25T581.48,294.34Z"/><path class="cls-1" d="M711.79,373.93l20.9,2.45v4.39H669.47v-4.39l20.77-2.45V248.74l-20.77-2.34V242h42.32Z"/><path class="cls-1" d="M887.41,334.38q0,48.35-57.12,48.34-27.52,0-41.54-12.4t-14-35.94q0-23.24,14-35.54t42.58-12.31q27.78,0,41.93,12.06T887.41,334.38Zm-23.37,0q0-21.09-8.18-30.56t-25.57-9.48q-17,0-24.6,9.09t-7.59,30.95q0,22.17,7.72,31.4T830.29,375q17.15,0,25.44-9.57T864,334.38Z"/><path class="cls-1" d="M943.86,295.81,930,293.37V289h34.27l.26,5.37a46.85,46.85,0,0,1,14.6-5.66,81.36,81.36,0,0,1,18.63-2.15q23.37,0,36.15,12.21t12.79,35.06q0,23.34-14,36.13t-40.31,12.79a173.23,173.23,0,0,1-27.91-2.15,106.47,106.47,0,0,1,.78,11v24.8l21.29,2.35v4.59H928.41v-4.59l15.45-2.35Zm79.44,38q0-18.75-8.11-27.88t-24.6-9.13q-15.2,0-25.31,3.22v73.34A178.06,178.06,0,0,0,990.59,375Q1023.31,375,1023.3,333.8Z"/><path class="cls-1" d="M1117.4,334.58v1.76q0,13.47,3.95,20.94a25.84,25.84,0,0,0,12.21,11.38q8.24,3.91,21.61,3.91c4.68,0,10.21-.3,16.62-.88s11.68-1.24,15.84-2v5.47a75.16,75.16,0,0,1-16.94,5.28,106.87,106.87,0,0,1-21.88,2.24q-28.43,0-41.61-11.52t-13.17-37q0-24,13.37-35.84t38.17-11.82q46.86,0,46.86,40v8Zm28.17-40.24q-13.52,0-20.71,8.21t-7.2,24.22h52.18q0-17.49-6-25T1145.57,294.34Z"/><path class="cls-1" d="M1314.43,286.53v24.81h-5.58l-7.53-10.75a106.78,106.78,0,0,0-15.38,1.32,92.74,92.74,0,0,0-15.38,3.47v68.55l20.9,2.45v4.39h-57.9v-4.39l15.45-2.45V295.81l-15.45-2.44V289h35.57l1.17,11.43q7.79-4.89,21.09-9.38t21.1-4.49Z"/></g></g></svg>